<?xml version="1.0" standalone="no"?>
<!DOCTYPE svg PUBLIC "-//W3C//DTD SVG 20010904//EN"
 "http://www.w3.org/TR/2001/REC-SVG-20010904/DTD/svg10.dtd">
<svg version="1.0" xmlns="http://www.w3.org/2000/svg"
 width="300.000000pt" height="300.000000pt" viewBox="0 0 300.000000 300.000000"
 preserveAspectRatio="xMidYMid meet">
<metadata>
Created by potrace 1.10, written by Peter Selinger 2001-2011
</metadata>
<g transform="translate(0.000000,300.000000) scale(0.100000,-0.100000)"
fill="#000000" stroke="none">
<path d="M1504 2080 c-84 -22 -160 -58 -225 -107 -62 -47 -124 -122 -112 -134
6 -6 37 17 84 63 84 83 172 131 278 154 307 65 611 -134 676 -441 18 -88 18
-142 0 -230 -64 -307 -369 -506 -677 -441 -71 16 -167 59 -221 100 -39 30 -47
32 -47 12 0 -37 158 -121 267 -142 142 -27 265 -10 392 52 88 43 201 150 248
234 101 179 106 384 15 570 -46 94 -159 211 -249 258 -132 69 -291 88 -429 52z"/>
<path d="M1077 1669 c-54 -36 -92 -86 -182 -243 -37 -64 -71 -118 -76 -121
-30 -19 26 166 86 286 36 70 36 97 3 84 -32 -13 -123 -246 -128 -330 -4 -59
-2 -72 14 -78 27 -10 65 33 138 156 112 187 206 272 224 202 3 -14 -3 -67 -15
-118 -23 -98 -27 -152 -12 -161 21 -13 63 17 108 76 73 95 134 158 153 158 23
0 30 -20 30 -82 0 -97 48 -148 127 -133 85 15 225 108 328 216 91 95 49 83
-57 -16 -95 -88 -223 -165 -275 -165 -57 0 -83 42 -83 136 0 137 -102 112
-227 -55 -69 -91 -74 -88 -43 29 23 86 25 122 9 153 -25 47 -58 49 -122 6z"/>
<path d="M1851 1394 c-23 -30 -23 -47 1 -52 22 -4 50 27 46 51 -5 31 -23 31
-47 1z"/>
<path d="M900 1225 c0 -34 13 -47 23 -22 4 10 6 10 6 0 1 -18 21 -16 21 2 0 8
-4 15 -9 15 -5 0 -11 9 -14 20 -8 33 -27 23 -27 -15z"/>
<path d="M950 1248 c0 -25 12 -58 21 -58 5 0 9 16 9 35 0 24 -5 35 -15 35 -8
0 -15 -6 -15 -12z"/>
<path d="M1001 1229 c-6 -18 -11 -33 -11 -34 0 -1 13 -2 30 -1 33 1 34 3 20
40 -13 35 -26 33 -39 -5z"/>
<path d="M1077 1253 c-4 -3 -7 -19 -7 -35 0 -23 4 -28 25 -28 18 0 25 5 25 20
0 11 -5 20 -11 20 -6 0 -8 -7 -5 -16 4 -10 1 -14 -6 -12 -21 7 -21 29 1 35 12
3 21 9 21 14 0 10 -34 12 -43 2z"/>
<path d="M1140 1225 c0 -19 5 -35 10 -35 6 0 10 16 10 35 0 19 -4 35 -10 35
-5 0 -10 -16 -10 -35z"/>
<path d="M1182 1241 c9 -15 9 -23 -1 -35 -8 -10 -9 -16 -3 -16 6 0 14 5 17 11
5 6 12 4 20 -7 11 -16 12 -12 11 23 0 31 -4 39 -12 32 -8 -7 -14 -6 -19 1 -3
5 -10 10 -16 10 -5 0 -4 -9 3 -19z"/>
<path d="M1280 1225 c0 -28 4 -35 20 -35 25 0 41 30 29 53 -6 9 -19 17 -29 17
-16 0 -20 -7 -20 -35z m38 -2 c-5 -25 -28 -28 -28 -4 0 12 6 21 16 21 9 0 14
-7 12 -17z"/>
<path d="M1350 1225 c0 -32 3 -35 28 -34 16 1 20 3 10 6 -21 5 -24 23 -5 23 8
0 7 4 -3 10 -10 6 -11 10 -2 10 6 0 12 5 12 10 0 6 -9 10 -20 10 -16 0 -20 -7
-20 -35z"/>
<path d="M1413 1225 c6 -19 16 -35 22 -35 6 0 16 16 22 35 6 19 7 35 2 35 -5
0 -12 -12 -16 -27 l-6 -28 -10 28 c-13 40 -27 33 -14 -8z"/>
<path d="M1480 1225 c0 -30 3 -35 23 -35 18 0 19 2 7 10 -13 8 -13 11 -1 19
11 7 10 10 -5 14 -16 4 -17 5 -1 6 24 1 22 21 -3 21 -16 0 -20 -7 -20 -35z"/>
<path d="M1540 1225 c0 -30 3 -35 23 -34 16 1 17 3 5 6 -13 3 -16 11 -11 34 3
18 1 29 -6 29 -6 0 -11 -16 -11 -35z"/>
<path d="M1600 1245 c-18 -21 -3 -55 25 -55 29 0 39 14 31 46 -7 27 -37 32
-56 9z m40 -26 c0 -24 -23 -21 -28 4 -2 10 3 17 12 17 10 0 16 -9 16 -21z"/>
<path d="M1680 1225 l0 -35 24 21 c27 24 24 49 -5 49 -15 0 -19 -7 -19 -35z"/>
<path d="M1740 1225 c0 -32 3 -35 28 -34 16 1 20 3 10 6 -21 5 -24 23 -5 23 8
0 7 4 -3 10 -10 6 -11 10 -2 10 6 0 12 5 12 10 0 6 -9 10 -20 10 -16 0 -20 -7
-20 -35z"/>
<path d="M1800 1226 c0 -20 5 -36 10 -36 6 0 10 5 10 11 0 8 4 8 13 1 12 -10
39 -15 65 -13 18 2 15 28 -5 40 -17 10 -17 10 0 11 9 0 17 5 17 10 0 6 -9 10
-20 10 -13 0 -20 -7 -20 -20 0 -11 5 -20 10 -20 6 0 10 -5 10 -11 0 -6 -10 -9
-22 -7 -17 2 -23 10 -23 28 0 18 -6 26 -22 28 -20 3 -23 -1 -23 -32z"/>
</g>
</svg>
